# xmcd CD database file
# Copyright (C) 1993-1998 Ti Kan
# 
# Track frame offsets:
#     182
#     13382
#     26770
#     37322
#     52197
#     63407
#     73332
#     83855
#     94317
#     109572
#     121160
#     136032
#     150122
# 
# Disc length: 2230 seconds
# 
# Revision: 1
# Processed by: cddbd v1.4b41PL1 Copyright (c) Steve Scherf et al.
# Submitted via: DiscPlay 4.0.4
# 
DISCID=b208b40d
DTITLE=Kenny Rogers - Kenny Rogers - Disc One
DYEAR=1900
DGENRE=
TTITLE0=Ruby don't take Your Love To Town
TTITLE1=Shine On Ruby Mountain
TTITLE2=Ticket To Nowhere
TTITLE3=After All
TTITLE4=Hurry Up Love
TTITLE5=Where Does Rosie Go?
TTITLE6=Trying Just As Hard
TTITLE7=We All Got To Help Each Other
TTITLE8=For The Good Times
TTITLE9=Poem For My Little Lady
TTITLE10=Head The Call
TTITLE11=Sunshine
TTITLE12=Something's Burning
EXTD=
EXTT0=
EXTT1=
EXTT2=
EXTT3=
EXTT4=
EXTT5=
EXTT6=
EXTT7=
EXTT8=
EXTT9=
EXTT10=
EXTT11=
EXTT12=
PLAYORDER=
